<?xml version="1.0" encoding="UTF-8" standalone="no"?>
<!-- Created with Inkscape (http://www.inkscape.org/) -->

<svg
   xmlns:dc="http://purl.org/dc/elements/1.1/"
   xmlns:cc="http://creativecommons.org/ns#"
   xmlns:rdf="http://www.w3.org/1999/02/22-rdf-syntax-ns#"
   xmlns:svg="http://www.w3.org/2000/svg"
   xmlns="http://www.w3.org/2000/svg"
   xmlns:sodipodi="http://sodipodi.sourceforge.net/DTD/sodipodi-0.dtd"
   xmlns:inkscape="http://www.inkscape.org/namespaces/inkscape"
   width="264"
   height="264"
   viewBox="0 0 69.849998 69.850002"
   version="1.1"
   id="svg8"
   inkscape:version="0.92.4 (5da689c313, 2019-01-14)"
   sodipodi:docname="cyborg.svg">
  <defs
     id="defs2" />
  <sodipodi:namedview
     id="base"
     pagecolor="#ffffff"
     bordercolor="#666666"
     borderopacity="1.0"
     inkscape:pageopacity="0.0"
     inkscape:pageshadow="2"
     inkscape:zoom="2.8"
     inkscape:cx="64.323879"
     inkscape:cy="119.87641"
     inkscape:document-units="mm"
     inkscape:current-layer="layer1"
     showgrid="false"
     units="px"
     inkscape:window-width="1920"
     inkscape:window-height="1017"
     inkscape:window-x="-8"
     inkscape:window-y="-8"
     inkscape:window-maximized="1" />
  <metadata
     id="metadata5">
    <rdf:RDF>
      <cc:Work
         rdf:about="">
        <dc:format>image/svg+xml</dc:format>
        <dc:type
           rdf:resource="http://purl.org/dc/dcmitype/StillImage" />
        <dc:title></dc:title>
      </cc:Work>
    </rdf:RDF>
  </metadata>
  <g
     inkscape:label="Capa 1"
     inkscape:groupmode="layer"
     id="layer1"
     transform="translate(0,-227.14998)">
    <rect
       style="opacity:1;fill:#9febb8;fill-opacity:1;fill-rule:nonzero;stroke:none;stroke-width:1.85003471;stroke-linecap:round;stroke-linejoin:round;stroke-miterlimit:4;stroke-dasharray:none;stroke-dashoffset:3.77952766;stroke-opacity:1;paint-order:markers stroke fill"
       id="rect821"
       width="17.870911"
       height="13.713174"
       x="-21.172436"
       y="229.99792"
       ry="0"
       rx="0" />
    <rect
       rx="0"
       ry="0"
       y="243.71111"
       x="-21.172436"
       height="13.713174"
       width="17.870911"
       id="rect823"
       style="opacity:1;fill:#f0bb92;fill-opacity:1;fill-rule:nonzero;stroke:none;stroke-width:1.85003471;stroke-linecap:round;stroke-linejoin:round;stroke-miterlimit:4;stroke-dasharray:none;stroke-dashoffset:3.77952766;stroke-opacity:1;paint-order:markers stroke fill" />
    <rect
       style="opacity:1;fill:#ff1634;fill-opacity:1;fill-rule:nonzero;stroke:none;stroke-width:1.85003471;stroke-linecap:round;stroke-linejoin:round;stroke-miterlimit:4;stroke-dasharray:none;stroke-dashoffset:3.77952766;stroke-opacity:1;paint-order:markers stroke fill"
       id="rect825"
       width="17.870911"
       height="13.713174"
       x="-21.172436"
       y="257.42429"
       ry="0"
       rx="0" />
    <rect
       rx="0"
       ry="0"
       y="271.13745"
       x="-21.172436"
       height="13.713174"
       width="17.870911"
       id="rect827"
       style="opacity:1;fill:#dbdcef;fill-opacity:1;fill-rule:nonzero;stroke:none;stroke-width:1.85003471;stroke-linecap:round;stroke-linejoin:round;stroke-miterlimit:4;stroke-dasharray:none;stroke-dashoffset:3.77952766;stroke-opacity:1;paint-order:markers stroke fill" />
    <g
       id="g889"
       transform="matrix(1.950448,0,0,2.1352964,-35.789952,-284.3313)">
      <path
         style="fill:#f0bb92;fill-opacity:1;stroke:#000000;stroke-width:0.86500001;stroke-linecap:butt;stroke-linejoin:miter;stroke-miterlimit:4;stroke-dasharray:none;stroke-opacity:1"
         d="m 20.839733,253.76895 c -0.236236,0 -1.937127,0.42522 -1.937127,0.61422 0,0.18899 -0.141743,4.58297 0.04725,4.96094 0.188986,0.37798 1.88988,1.03943 1.88988,1.03943 z"
         id="path879"
         inkscape:connector-curvature="0"
         sodipodi:nodetypes="csccc" />
      <path
         sodipodi:nodetypes="csccc"
         inkscape:connector-curvature="0"
         id="path877"
         d="m 51.688243,253.76895 c 0.236236,0 1.937127,0.42522 1.937127,0.61422 0,0.18899 0.141743,4.58297 -0.04725,4.96094 -0.188986,0.37798 -1.88988,1.03943 -1.88988,1.03943 z"
         style="fill:#f0bb92;fill-opacity:1;stroke:#000000;stroke-width:0.86500001;stroke-linecap:butt;stroke-linejoin:miter;stroke-miterlimit:4;stroke-dasharray:none;stroke-opacity:1" />
      <rect
         ry="9.9367142"
         y="243.69963"
         x="21.822418"
         height="27.414686"
         width="29.588051"
         id="rect840"
         style="opacity:1;fill:#f0bb92;fill-opacity:1;fill-rule:nonzero;stroke:#000000;stroke-width:2.19959831;stroke-linecap:round;stroke-linejoin:round;stroke-miterlimit:4;stroke-dasharray:none;stroke-dashoffset:3.77952766;stroke-opacity:1;paint-order:markers stroke fill" />
      <path
         sodipodi:nodetypes="cccccccccccc"
         inkscape:connector-curvature="0"
         id="path863"
         d="m 38.033854,243.4691 1.08668,7.55953 1.133931,5.00818 c -4.764609,2.57633 -4.821266,2.47911 -7.890253,3.63807 -2.45148,0.83858 -6.567337,4.15774 -6.567337,4.15774 l -2.740328,3.07106 c -1.256824,-1.03669 -1.932937,-4.31803 -1.937128,-5.57515 0.127228,-3.58583 -0.08002,-9.45449 0.614212,-10.77232 0.511591,-1.63696 1.42775,-3.51463 2.929315,-4.67746 2.846053,-2.01412 3.80752,-2.30986 5.055432,-2.50409 3.460178,-0.32576 6.921193,-0.67173 8.315476,0.0944 z"
         style="fill:#dbdcef;fill-opacity:1;stroke:#000000;stroke-width:0.96499997;stroke-linecap:butt;stroke-linejoin:miter;stroke-miterlimit:4;stroke-dasharray:none;stroke-opacity:1" />
      <ellipse
         cx="33.261902"
         cy="253.76897"
         rx="1.842634"
         ry="1.9371277"
         id="path865"
         style="opacity:1;fill:#ff1634;fill-opacity:1;fill-rule:nonzero;stroke:#000000;stroke-width:0.96499997;stroke-linecap:round;stroke-linejoin:round;stroke-miterlimit:4;stroke-dasharray:none;stroke-dashoffset:3.77952766;stroke-opacity:1;paint-order:markers stroke fill" />
      <ellipse
         style="opacity:1;fill:#ffffff;fill-opacity:1;fill-rule:nonzero;stroke:#000000;stroke-width:0.96499997;stroke-linecap:round;stroke-linejoin:round;stroke-miterlimit:4;stroke-dasharray:none;stroke-dashoffset:3.77952766;stroke-opacity:1;paint-order:markers stroke fill"
         id="ellipse867"
         ry="1.9371277"
         rx="1.842634"
         cy="253.76895"
         cx="45.451633" />
      <path
         sodipodi:nodetypes="ccssc"
         inkscape:connector-curvature="0"
         id="path869"
         d="m 29.954612,263.3601 17.764882,-1.08668 c 1.056274,-0.61616 -3.026065,3.32764 -5.57515,4.63021 -1.711049,0.87434 -5.587222,0.92634 -8.457218,-0.0473 -2.149591,-0.72924 -4.901643,-3.83027 -3.732514,-3.49623 z"
         style="fill:#ffffff;fill-opacity:1;stroke:#000000;stroke-width:1.06500006;stroke-linecap:butt;stroke-linejoin:miter;stroke-miterlimit:4;stroke-dasharray:none;stroke-opacity:1" />
      <path
         sodipodi:nodetypes="aaaaaaaaaaaaa"
         inkscape:connector-curvature="0"
         id="path875"
         d="m 29.482142,247.20162 c 2.551693,0.16571 5.055966,0.81332 7.606771,0.99218 3.047986,0.21373 6.173784,0.71337 9.165922,0.0945 1.215157,-0.25133 2.847691,-0.4016 3.401785,-1.5119 0.281475,-0.56402 -0.04613,-1.33902 -0.425221,-1.84264 -1.560224,-2.07275 -4.289242,-3.14045 -6.803573,-3.77976 -5.021847,-1.27689 -10.735655,-1.7887 -15.544271,0.14174 -2.667593,1.07092 -4.997051,3.33546 -6.283853,5.90588 -1.262823,2.52252 -1.278276,5.60877 -0.94494,8.40997 0.196038,1.64741 0.04519,4.7826 1.700893,4.67745 3.141937,-0.19954 0.612002,-6.42751 2.078869,-9.21317 0.820402,-1.55799 1.977095,-3.16968 3.590774,-3.87425 0.750526,-0.3277 1.639617,-0.0531 2.456844,0 z"
         style="fill:#9febb8;fill-opacity:1;stroke:#000000;stroke-width:0.86500001;stroke-linecap:butt;stroke-linejoin:miter;stroke-miterlimit:4;stroke-dasharray:none;stroke-opacity:1" />
    </g>
  </g>
</svg>
